<svg xmlns="http://www.w3.org/2000/svg" viewBox="0 0 309.22 168.83"><defs><style>.cls-1{fill:#004cf4;}.cls-2{fill:#051e4c;}</style></defs><title>logo name stacked color</title><g id="Layer_1" data-name="Layer 1"><path class="cls-1" d="M222.76,44.8A2.78,2.78,0,0,0,227.87,47a2.27,2.27,0,0,1,4.31,1.35,2.78,2.78,0,0,0,5.44,1.11,7.82,7.82,0,0,0-14.86-4.63Z"/><path class="cls-1" d="M270.3,59a2.78,2.78,0,0,0,3.27-2.17,2.27,2.27,0,0,1,4.5.46,2.78,2.78,0,0,0,5.55,0,7.83,7.83,0,0,0-15.49-1.58A2.79,2.79,0,0,0,270.3,59Z"/><path class="cls-1" d="M309,20.17a2.79,2.79,0,0,0-2.52-1.64l-19.41-.15a12.94,12.94,0,0,1-6.9-2.08A53.49,53.49,0,0,0,242,8.5a13,13,0,0,1-7.17-.8L217,.22A2.74,2.74,0,0,0,214,.74a2.78,2.78,0,0,0-.75,2.91,86.59,86.59,0,0,1,2.38,9c.76,3.47,1.36,6.2,3.19,8.51A36.36,36.36,0,0,0,213,35.36a25.46,25.46,0,0,1-1,3.57,41.43,41.43,0,0,0-2.27,7.14v0a37.22,37.22,0,0,0-.62,8.48,85.08,85.08,0,0,1-.45,10.3,2.78,2.78,0,0,0,1.13,2.53A52.51,52.51,0,0,0,244.54,92.3l.2,0a1.06,1.06,0,0,0,.19.06,52.44,52.44,0,0,0,41.71-9.25,2.74,2.74,0,0,0,2-1.88,84.52,84.52,0,0,1,3.64-9.64,34,34,0,0,0,3.49-15.54,26.7,26.7,0,0,1,.51-3.66,36.45,36.45,0,0,0,.21-15.35c2.58-1.4,4.21-3.67,6.28-6.57a82.91,82.91,0,0,1,5.72-7.35A2.79,2.79,0,0,0,309,20.17ZM239.22,34.85l.09.06.08.06c2.46,1.66,5.51,6.74,8.21,11.22.62,1,1.22,2,1.82,3-3.39,2.38-4.41,3.5-4.91,4.29a7.87,7.87,0,0,0-1.16,3.25,16.09,16.09,0,0,1-15.43,5.92l-.07,0c-7.11-1.45-12.36-8-12.59-15.78A37,37,0,0,1,217,41.36l0,0c0-.08,4.1-8,11.83-9A14.34,14.34,0,0,1,239.22,34.85Zm33,6.83.1,0,.11,0a14.36,14.36,0,0,1,10.5,1.71c6.72,4,7.34,12.85,7.34,12.94s0,0,0,.06a29.78,29.78,0,0,1-1.12,8.16,2.68,2.68,0,0,0-.81.73,16.16,16.16,0,0,1-15.91,6.51l-.06,0a16.07,16.07,0,0,1-12.16-12.4,7.87,7.87,0,0,0,0-2.65,7.65,7.65,0,0,0-.71-2.06v0a38.44,38.44,0,0,0-2.12-3.76c.93-.65,1.87-1.33,2.85-2C264.46,45.71,269.27,42.24,272.18,41.68ZM248.82,57.91h0a2.87,2.87,0,0,1,.34-1.42,18.28,18.28,0,0,1,3.48-2.79c.79,1.27,1.27,2.13,1.58,2.73a23.26,23.26,0,0,0,.27,2.66c-.42,1-1.46,2.59-3.9,4.62C249.13,60.86,248.79,59,248.82,57.91Zm-2.78,29-.2,0-.19-.06a46.94,46.94,0,0,1-31.32-22.72c.12-1.34.2-2.56.25-3.67a20.91,20.91,0,0,0,12.16,7.59l.09,0a21.33,21.33,0,0,0,17.59-4.61,34.26,34.26,0,0,0,3,5.82l1.54,2.48,2.4-1.67a33.28,33.28,0,0,0,5.26-4.44,21.28,21.28,0,0,0,14.63,11.5l.09,0a20.81,20.81,0,0,0,13.53-2c-.35,1-.71,2-1.07,3.13A46.89,46.89,0,0,1,246,86.94Zm52.23-59.67c-2.55,3.59-3.55,4.86-5.74,5.43l0,0h-.06a1.6,1.6,0,0,0-.23.1l-.24.09-.27.17-.18.12a1.75,1.75,0,0,0-.24.23l-.14.14a3.06,3.06,0,0,0-.21.29c0,.05-.07.09-.1.15a3.13,3.13,0,0,0-.15.32s-.05.1-.07.16a2.33,2.33,0,0,0-.08.36s0,.1,0,.16a2.54,2.54,0,0,0,0,.39c0,.05,0,.1,0,.15a3.06,3.06,0,0,0,.07.4.59.59,0,0,0,0,.13v0a.17.17,0,0,0,0,.07,26.57,26.57,0,0,1,1.13,8,18.64,18.64,0,0,0-6-5.66,19.91,19.91,0,0,0-14.78-2.3h0c-4.09.87-9.1,4.49-14,8l-2.82,2c-.58-.94-1.18-1.93-1.8-3-3.08-5.14-6.27-10.44-9.69-12.84h0a19.88,19.88,0,0,0-14.49-3.7,18.84,18.84,0,0,0-7.72,2.86,26.27,26.27,0,0,1,4.19-6.95.21.21,0,0,0,0-.06l0,0,.07-.11c.08-.12.16-.23.22-.34s0-.1.05-.15a1.78,1.78,0,0,0,.14-.36.9.9,0,0,0,0-.16,2.2,2.2,0,0,0,.06-.37,1,1,0,0,0,0-.17,1.45,1.45,0,0,0,0-.36,1,1,0,0,0,0-.17,1.87,1.87,0,0,0-.08-.34c0-.07,0-.13-.07-.19s-.08-.2-.13-.3-.09-.13-.13-.19a1.51,1.51,0,0,0-.18-.26l-.17-.18-.18-.18-.05,0,0,0c-1.79-1.39-2.21-3-3.15-7.26-.26-1.16-.54-2.45-.9-3.9l12.57,5.25A18.54,18.54,0,0,0,243,14a47.86,47.86,0,0,1,34.18,7,18.37,18.37,0,0,0,9.87,3l13.62.11C299.73,25.22,299,26.3,298.27,27.27Z"/><path class="cls-2" d="M0,34.84a1.62,1.62,0,0,1,1.56-1.56h9.79a1.56,1.56,0,0,1,1.57,1.56V55.57H36.45V34.84A1.56,1.56,0,0,1,38,33.28H47.8a1.63,1.63,0,0,1,1.57,1.56V89.31a1.63,1.63,0,0,1-1.57,1.56H38a1.56,1.56,0,0,1-1.56-1.56V67.67H12.92V89.31a1.56,1.56,0,0,1-1.57,1.56H1.56A1.62,1.62,0,0,1,0,89.31Z"/><path class="cls-2" d="M93,32.46a29.62,29.62,0,1,1-29.53,29.7A29.56,29.56,0,0,1,93,32.46Zm0,46.07A16.46,16.46,0,1,0,76.6,62.16,16.49,16.49,0,0,0,93,78.53Z"/><path class="cls-2" d="M162,32.46a29.62,29.62,0,1,1-29.54,29.7A29.57,29.57,0,0,1,162,32.46Zm0,46.07a16.46,16.46,0,1,0-16.38-16.37A16.48,16.48,0,0,0,162,78.53Z"/><path class="cls-2" d="M0,112a1.62,1.62,0,0,1,1.56-1.56h9.79A1.56,1.56,0,0,1,12.92,112v20.73H36.45V112A1.56,1.56,0,0,1,38,110.42H47.8A1.63,1.63,0,0,1,49.37,112v54.47A1.63,1.63,0,0,1,47.8,168H38a1.56,1.56,0,0,1-1.56-1.56V144.81H12.92v21.64A1.56,1.56,0,0,1,11.35,168H1.56A1.62,1.62,0,0,1,0,166.45Z"/><path class="cls-2" d="M60.23,165.87,86,110.5a1.68,1.68,0,0,1,1.4-.91h.82a1.67,1.67,0,0,1,1.4.91l25.75,55.37A1.45,1.45,0,0,1,114,168h-9.14c-1.48,0-2.14-.49-2.88-2.06l-3-6.5H76.6l-3,6.59a3.07,3.07,0,0,1-3,2H61.63A1.45,1.45,0,0,1,60.23,165.87ZM94,148.26l-6.25-13.57h-.08l-6.17,13.57Z"/><path class="cls-2" d="M151.23,109.59a27.65,27.65,0,0,1,19.91,7.66,1.52,1.52,0,0,1,.08,2.3l-6.42,6.66a1.43,1.43,0,0,1-2.05,0A16.85,16.85,0,0,0,151.64,122c-9.3,0-16.13,7.73-16.13,17s6.92,16.7,16.21,16.7a17.41,17.41,0,0,0,11-3.95,1.64,1.64,0,0,1,2.14.08l6.41,6.83a1.64,1.64,0,0,1-.08,2.22,28.23,28.23,0,0,1-20,8,29.62,29.62,0,1,1,0-59.24Z"/><path class="cls-2" d="M185.21,112.39a2,2,0,0,1,2-2h9.62a2,2,0,0,1,2,2V134l18.26-22.79a2.45,2.45,0,0,1,1.57-.82H229a1.9,1.9,0,0,1,1.48,3l-19.25,24.11,21,27.31a1.93,1.93,0,0,1-1.56,3.05H219.27a2.26,2.26,0,0,1-1.48-.58l-19-25.83V166a2,2,0,0,1-2,2h-9.62a2,2,0,0,1-2-2Z"/><path class="cls-2" d="M241.41,160.19l3.87-6.82a2.12,2.12,0,0,1,2.79-.5c.33.17,6.26,4.53,11.69,4.53,3.29,0,5.67-2.06,5.67-4.94,0-3.46-2.88-6.09-8.47-8.31-7.08-2.8-16-8.31-16-18.18,0-8.15,6.33-16.38,19-16.38,8.56,0,15.14,4.37,17.61,6.17,1,.58.82,2.06.49,2.64l-4.19,6.33c-.58.91-2.06,1.65-2.8,1.07-.74-.41-6.75-4.93-11.76-4.93-3,0-5.19,2-5.19,4.19,0,3.05,2.47,5.35,9,8s16.62,7.57,16.62,18.76c0,8.48-7.32,17-19.42,17-10.69,0-16.62-4.44-18.51-6.33C241,161.67,240.75,161.35,241.41,160.19Z"/></g></svg>